<svg
  xmlns="http://www.w3.org/2000/svg"
  viewBox="0 0 24 24"
  fill="currentColor"
  class="w-6 h-6"
>
  <path
    d="M12 2C6.48 2 2 6.48 2 12s4.48 10 10 10 10-4.48 10-10S17.52 2 12 2zm0 2c1.65 0 3.18.67 4.29 1.76C16.91 6.83 17.5 8.36 17.5 10h-2c0-1.1-.45-2.1-1.17-2.83C13.6 6.45 12.6 6 11.5 6S9.4 6.45 8.67 7.17C7.95 7.9 7.5 8.9 7.5 10H5.5c0-1.65.59-3.18 1.71-4.24C8.82 4.67 10.35 4 12 4zm0 16c-2.21 0-4.21-.9-5.66-2.34A7.924 7.924 0 014 12h2c0 1.65.59 3.18 1.71 4.24C9.79 17.9 10.79 18.5 12 18.5s2.21-.9 2.95-2.26c1.12-1.06 1.71-2.59 1.71-4.24h2a7.924 7.924 0 01-2.34 5.66C16.21 19.1 14.21 20 12 20z"
  />
</svg>
