<svg width="492" height="478" viewBox="0 0 492 478" fill="none" xmlns="http://www.w3.org/2000/svg">
<path d="M246.167 478C381.937 478 492 414.296 492 335.713C492 257.13 381.937 193.426 246.167 193.426C110.397 193.426 0.334183 257.13 0.334183 335.713C0.334183 414.296 110.397 478 246.167 478Z" fill="#F0F0F0"/>
<path d="M387.348 385.08C371.227 375.75 371.227 360.625 387.348 351.295C403.468 341.964 429.605 341.964 445.725 351.295C461.846 360.625 461.846 375.75 445.725 385.08C429.605 394.411 403.468 394.411 387.348 385.08Z" fill="#E0E0E0"/>
<path d="M59.4733 386.378L17.0699 361.839C14.6806 360.458 14.6806 358.209 17.0699 356.829L263.717 214.071C265.057 213.39 266.539 213.035 268.042 213.035C269.544 213.035 271.026 213.39 272.366 214.071L314.78 238.61C317.169 239.991 317.169 242.24 314.78 243.62L68.1334 386.378C66.7911 387.059 65.3078 387.414 63.8033 387.414C62.2989 387.414 60.8156 387.059 59.4733 386.378Z" fill="#E0E0E0"/>
<path d="M211.892 342.636L248.348 321.506C252.104 319.331 253.982 316.486 253.982 313.63C253.982 310.775 253.982 308.547 253.982 308.547L216.17 287.166C215.114 286.482 214.234 285.556 213.603 284.465C212.972 283.374 212.607 282.149 212.539 280.89V235.818L148.892 272.7V317.751C148.966 319.009 149.332 320.232 149.963 321.322C150.594 322.412 151.471 323.339 152.523 324.027L184.701 342.604C192.193 346.987 204.38 346.987 211.892 342.636Z" fill="#8C8C8C"/>
<g opacity="0.6">
<path d="M211.89 342.638L248.346 321.508C252.102 319.333 253.98 316.488 253.98 313.632C253.98 310.776 253.98 308.549 253.98 308.549L216.168 287.168C215.112 286.484 214.232 285.558 213.601 284.467C212.97 283.376 212.605 282.151 212.537 280.892V235.82L148.89 272.702V317.753C148.964 319.011 149.33 320.234 149.961 321.324C150.592 322.414 151.469 323.341 152.521 324.029L184.699 342.606C192.191 346.989 204.378 346.989 211.89 342.638Z" fill="black"/>
</g>
<path opacity="0.3" d="M164.156 325.734V330.797L152.491 324.05C151.439 323.362 150.562 322.436 149.933 321.346C149.304 320.255 148.94 319.032 148.871 317.774V272.702L160.995 265.684C161.245 268.769 161.516 271.96 161.777 275.098L153.253 280.014V315.212C153.32 316.471 153.685 317.696 154.316 318.787C154.947 319.878 155.827 320.803 156.884 321.488L164.156 325.734Z" fill="black"/>
<path d="M153.253 315.221C153.325 316.479 153.691 317.703 154.322 318.793C154.952 319.884 155.83 320.81 156.884 321.497L184.659 337.543C192.171 341.883 204.358 341.894 211.881 337.543L248.4 316.413C255.923 312.062 255.923 305.012 248.4 300.661L220.604 284.615C219.552 283.926 218.677 282.999 218.048 281.909C217.419 280.819 217.055 279.596 216.983 278.339V243.131L153.337 280.013L153.253 315.221Z" fill="#8C8C8C"/>
<path opacity="0.3" d="M153.253 315.221C153.325 316.479 153.691 317.703 154.322 318.793C154.952 319.884 155.83 320.81 156.884 321.497L184.659 337.543C192.171 341.883 204.358 341.894 211.881 337.543L248.4 316.413C255.923 312.062 255.923 305.012 248.4 300.661L220.604 284.615C219.552 283.926 218.677 282.999 218.048 281.909C217.419 280.819 217.055 279.596 216.983 278.339V243.131L153.337 280.013L153.253 315.221Z" fill="black"/>
<path opacity="0.5" d="M227.96 288.914L220.563 284.636C219.511 283.947 218.636 283.02 218.007 281.93C217.378 280.84 217.014 279.617 216.942 278.36V243.131L153.295 280.013V315.221C153.367 316.479 153.733 317.703 154.364 318.793C154.995 319.884 155.873 320.81 156.926 321.497L164.23 325.681L227.96 288.914Z" fill="black"/>
<path d="M253.992 308.555V313.638C253.992 316.494 252.104 319.328 248.358 321.515L211.839 342.633C207.843 344.772 203.379 345.882 198.849 345.865V340.803C203.379 340.82 207.843 339.709 211.839 337.571L248.358 316.431C252.104 314.266 253.992 311.41 253.992 308.555Z" fill="#8C8C8C"/>
<path opacity="0.5" d="M253.992 308.555V313.638C253.992 316.494 252.104 319.328 248.358 321.515L211.839 342.633C207.843 344.772 203.379 345.882 198.849 345.865V340.803C203.379 340.82 207.843 339.709 211.839 337.571L248.358 316.431C252.104 314.266 253.992 311.41 253.992 308.555Z" fill="black"/>
<path d="M51.0015 358.975C52.3775 359.641 53.8903 359.974 55.418 359.947C56.9458 359.92 58.4459 359.533 59.7973 358.818L306.037 216.301C307.357 215.438 308.456 214.275 309.245 212.906C310.033 211.538 310.489 210.003 310.576 208.425V8.72295C310.529 7.18782 310.12 5.68557 309.384 4.33864C308.648 2.9917 307.605 1.83819 306.34 0.97211C304.965 0.305136 303.454 -0.0273245 301.927 0.00175609C300.4 0.0308367 298.902 0.420637 297.554 1.13947L51.3145 143.698C49.9988 144.567 48.9065 145.735 48.1268 147.108C47.3471 148.48 46.9021 150.018 46.828 151.596V351.266C46.8745 352.789 47.2763 354.279 48.0011 355.618C48.7258 356.957 49.7535 358.106 51.0015 358.975Z" fill="#8C8C8C"/>
<path d="M59.8285 358.807L306.068 216.29C307.39 215.429 308.491 214.266 309.279 212.897C310.068 211.529 310.523 209.992 310.607 208.414V8.7224C310.607 5.82498 308.572 4.64301 306.068 6.09695L59.8285 148.614C58.5075 149.477 57.4082 150.64 56.6196 152.008C55.8309 153.377 55.3753 154.912 55.2897 156.49V356.182C55.2897 359.079 57.3243 360.261 59.8285 358.807Z" fill="#8C8C8C"/>
<path opacity="0.5" d="M59.8285 358.807L306.068 216.29C307.39 215.429 308.491 214.266 309.279 212.897C310.068 211.529 310.523 209.992 310.607 208.414V8.7224C310.607 5.82498 308.572 4.64301 306.068 6.09695L59.8285 148.614C58.5075 149.477 57.4082 150.64 56.6196 152.008C55.8309 153.377 55.3753 154.912 55.2897 156.49V356.182C55.2897 359.079 57.3243 360.261 59.8285 358.807Z" fill="black"/>
<path d="M59.1608 363.995C57.8696 364.56 56.4715 364.837 55.0629 364.808C53.6542 364.78 52.2686 364.445 51.0015 363.827C49.7507 362.956 48.7213 361.803 47.9964 360.461C47.2715 359.118 46.8713 357.623 46.828 356.097V337.918L55.3316 342.855V361.035C55.2794 363.681 56.9593 364.884 59.1608 363.995Z" fill="#8C8C8C"/>
<path opacity="0.5" d="M59.1608 363.995C57.8696 364.56 56.4715 364.837 55.0629 364.808C53.6542 364.78 52.2686 364.445 51.0015 363.827C49.7507 362.956 48.7213 361.803 47.9964 360.461C47.2715 359.118 46.8713 357.623 46.828 356.097V337.918L55.3316 342.855V361.035C55.2794 363.681 56.9593 364.884 59.1608 363.995Z" fill="black"/>
<path d="M55.2803 342.859V361.038C55.2803 363.936 57.367 365.107 59.819 363.664L306.059 221.146C307.374 220.287 308.469 219.131 309.257 217.77C310.046 216.41 310.505 214.883 310.598 213.312V195.049L55.2803 342.859Z" fill="#8C8C8C"/>
<path opacity="0.3" d="M55.2897 342.817V361.038C55.2897 363.936 57.3765 365.107 59.8285 363.664L306.068 221.146C307.381 220.286 308.475 219.129 309.261 217.769C310.048 216.408 310.505 214.882 310.597 213.312V195.049L55.2897 342.817Z" fill="black"/>
<path d="M63.7939 320.003V159.328C63.8425 158.381 64.1135 157.459 64.585 156.638C65.0564 155.816 65.7149 155.118 66.5067 154.6L299.329 19.8022C300.831 18.934 302.052 19.6348 302.052 21.3712V182.131C302.001 183.078 301.728 184 301.255 184.821C300.782 185.643 300.122 186.341 299.329 186.858L66.5171 321.625C65.0147 322.493 63.7939 321.782 63.7939 320.003Z" fill="#8C8C8C"/>
<path d="M63.7939 320.003V159.328C63.8425 158.381 64.1135 157.459 64.585 156.638C65.0564 155.816 65.7149 155.118 66.5067 154.6L299.329 19.8022C300.831 18.934 302.052 19.6348 302.052 21.3712V182.131C302.001 183.078 301.728 184 301.255 184.821C300.782 185.643 300.122 186.341 299.329 186.858L66.5171 321.625C65.0147 322.493 63.7939 321.782 63.7939 320.003Z" fill="#8C8C8C"/>
<path d="M182.938 274.74C181.698 275.548 180.667 276.638 179.927 277.921C179.187 279.204 178.76 280.644 178.681 282.124C178.681 284.844 180.59 285.953 182.938 284.593C184.179 283.784 185.211 282.692 185.951 281.407C186.691 280.122 187.117 278.679 187.195 277.198C187.195 274.478 185.285 273.38 182.938 274.74Z" fill="#8C8C8C"/>
<path opacity="0.7" d="M56.6254 151.993C55.8167 153.356 55.3545 154.897 55.2794 156.48V342.856L46.828 337.919V151.595C46.8827 150.006 47.3425 148.458 48.1635 147.098L56.6254 151.993Z" fill="black"/>
<path opacity="0.3" d="M310.554 7.97303C310.231 5.62999 308.342 4.83504 306.057 6.1007L59.8175 148.618C58.4824 149.455 57.3805 150.617 56.6143 151.996L48.1003 147.07C48.8715 145.691 49.9767 144.529 51.3139 143.691L297.554 1.18451C298.904 0.465574 300.403 0.0757556 301.932 0.0466776C303.46 0.0175995 304.973 0.350081 306.35 1.01715C307.506 1.80725 308.48 2.83714 309.206 4.03718C309.931 5.23721 310.391 6.57942 310.554 7.97303Z" fill="black"/>
<path d="M323.839 32.5524C323.473 32.3684 323.065 32.2878 322.656 32.3191C322.248 32.3504 321.857 32.4926 321.523 32.7303L89.1811 167.287C88.2643 167.895 87.5032 168.711 86.9594 169.669C86.4156 170.627 86.1043 171.699 86.0509 172.8V332.492C86.0183 333.031 86.1251 333.57 86.3609 334.055C86.5967 334.541 86.9535 334.957 87.3969 335.264C87.9081 335.547 90.6418 337.136 91.4556 337.576C91.7436 337.723 92.0653 337.791 92.3879 337.772C92.7106 337.754 93.0225 337.65 93.292 337.471L325.582 202.914C326.499 202.306 327.26 201.49 327.803 200.533C328.347 199.575 328.658 198.502 328.712 197.402V36.8829C328.759 36.4772 328.691 36.0666 328.518 35.6971C328.345 35.3275 328.072 35.0137 327.731 34.7909C327.209 34.4457 324.424 32.8976 323.839 32.5524Z" fill="#8C8C8C"/>
<path d="M93.2405 169.546L325.593 35.0413C327.346 33.9953 328.723 34.853 328.723 36.8823V197.401C328.67 198.502 328.358 199.574 327.814 200.532C327.271 201.49 326.51 202.305 325.593 202.913L93.2405 337.471C91.4876 338.517 90.1103 336.833 90.1103 334.803V175.059C90.1654 173.958 90.4773 172.886 91.021 171.929C91.5647 170.971 92.3249 170.155 93.2405 169.546Z" fill="#FAFAFA"/>
<path d="M327.012 35.6476C327.627 35.6476 327.721 36.4216 327.721 36.8818V197.401C327.665 198.322 327.395 199.218 326.934 200.017C326.472 200.816 325.83 201.496 325.061 202.003L92.7397 336.56C92.5837 336.662 92.4036 336.719 92.218 336.728C91.6337 336.728 91.1746 335.828 91.1746 334.803V175.058C91.2249 174.137 91.4865 173.239 91.9388 172.436C92.3912 171.632 93.0223 170.944 93.783 170.424L326.115 35.9404C326.383 35.7666 326.692 35.6656 327.012 35.6476ZM327.012 34.6016C326.509 34.623 326.02 34.7743 325.593 35.0409L93.2405 169.546C92.3249 170.155 91.5647 170.971 91.021 171.928C90.4773 172.886 90.1654 173.958 90.1103 175.058V334.803C90.1103 336.414 91.0076 337.773 92.1971 337.773C92.5655 337.767 92.9255 337.662 93.2405 337.47L325.582 202.913C326.499 202.305 327.26 201.489 327.804 200.532C328.348 199.574 328.659 198.501 328.713 197.401V36.8818C328.713 35.4384 328.003 34.6016 326.96 34.6016H327.012Z" fill="#E0E0E0"/>
<path d="M87.3341 335.263C87.6784 335.441 90.1512 336.853 91.2364 337.48C90.8467 337.156 90.5381 336.745 90.3352 336.28C90.1323 335.816 90.0407 335.309 90.0678 334.803V185.486L85.9986 183.102V332.491C85.9649 333.029 86.0701 333.567 86.304 334.052C86.5379 334.538 86.8927 334.955 87.3341 335.263Z" fill="#F0F0F0"/>
<path d="M328.765 36.8476C328.765 34.8393 327.335 34.0234 325.635 35.038L93.2405 169.543C92.3249 170.152 91.5647 170.968 91.021 171.926C90.4773 172.883 90.1654 173.955 90.1103 175.055V185.515L328.765 47.3076V36.8476Z" fill="#8C8C8C"/>
<g opacity="0.4">
<path d="M325.593 35.0422L93.2405 169.537C92.308 170.126 91.5398 170.943 91.0077 171.911L86.9698 169.557C87.501 168.623 88.2626 167.842 89.1817 167.288L321.524 32.7306C321.856 32.4912 322.248 32.3472 322.656 32.314C323.064 32.2809 323.473 32.3598 323.84 32.5423C324.403 32.8979 327.043 34.3937 327.721 34.7598C327.37 34.6294 326.993 34.5869 326.622 34.6361C326.251 34.6854 325.898 34.8248 325.593 35.0422Z" fill="white"/>
</g>
<path opacity="0.15" d="M85.998 183.111V172.745C86.0409 171.615 86.3752 170.516 86.9684 169.555L91.0167 171.898C90.4321 172.843 90.1047 173.925 90.0673 175.036V185.496L85.998 183.111Z" fill="black"/>
<path d="M279.766 157.266L140.609 237.808C139.932 238.248 139.369 238.842 138.965 239.542C138.56 240.242 138.327 241.027 138.282 241.835V281.834C138.327 282.641 138.56 283.427 138.965 284.127C139.369 284.827 139.932 285.421 140.609 285.861L144.668 288.204C145.389 288.57 146.186 288.76 146.995 288.76C147.803 288.76 148.6 288.57 149.321 288.204L288.457 207.662C289.134 207.22 289.698 206.624 290.102 205.922C290.506 205.221 290.74 204.433 290.784 203.625V163.615C290.74 162.808 290.506 162.022 290.102 161.322C289.698 160.622 289.134 160.028 288.457 159.588L284.388 157.245C283.67 156.885 282.877 156.7 282.075 156.703C281.272 156.707 280.481 156.9 279.766 157.266Z" fill="#8C8C8C"/>
<path opacity="0.5" d="M290.783 163.259C290.616 162.057 289.646 161.617 288.477 162.297L149.32 242.839C148.634 243.266 148.07 243.865 147.682 244.575L138.97 239.534C139.36 238.834 139.92 238.244 140.598 237.818L279.765 157.276C280.484 156.91 281.28 156.719 282.086 156.719C282.893 156.719 283.689 156.91 284.408 157.276L288.477 159.619C289.098 160.027 289.624 160.562 290.022 161.19C290.419 161.818 290.679 162.523 290.783 163.259Z" fill="white"/>
<path d="M148.925 288.404C148.244 288.673 147.513 288.796 146.782 288.763C146.05 288.731 145.333 288.544 144.678 288.216L140.609 285.873C139.934 285.431 139.371 284.837 138.967 284.137C138.563 283.438 138.328 282.653 138.282 281.846V241.847C138.314 241.03 138.551 240.235 138.971 239.535L147.683 244.577C147.26 245.268 147.023 246.057 146.995 246.868V286.877C146.995 288.205 147.829 288.823 148.925 288.404Z" fill="#8C8C8C"/>
<path d="M149.321 242.84L288.478 162.298C289.762 161.555 290.805 162.151 290.805 163.637V203.646C290.761 204.455 290.527 205.242 290.123 205.944C289.719 206.645 289.155 207.241 288.478 207.684L149.342 288.225C148.059 288.968 147.016 288.361 147.016 286.876V246.877C147.057 246.07 147.288 245.284 147.688 244.583C148.089 243.882 148.648 243.284 149.321 242.84Z" fill="#8C8C8C"/>
<path d="M242.87 178.627L140.618 237.82C139.941 238.246 139.381 238.836 138.991 239.535L147.703 244.577C148.09 243.866 148.655 243.268 149.341 242.841L251.593 183.658L242.87 178.627Z" fill="#455A64"/>
<path d="M251.574 183.656L149.322 242.839C148.645 243.281 148.081 243.877 147.677 244.579C147.273 245.28 147.039 246.067 146.995 246.876V286.865C146.995 288.35 148.038 288.957 149.322 288.214L251.574 229.032V183.656Z" fill="#37474F"/>
<path d="M172.901 237.965L225.666 207.433C227.846 206.167 229.62 207.067 229.62 209.441C229.523 210.775 229.113 212.066 228.424 213.211C227.735 214.356 226.786 215.322 225.655 216.031L172.901 246.574C170.721 247.84 168.937 246.94 168.937 244.566C169.035 243.231 169.445 241.938 170.134 240.792C170.823 239.645 171.771 238.677 172.901 237.965Z" fill="#8C8C8C"/>
<path d="M183.71 248.08C183.72 248.069 183.732 248.06 183.746 248.054C183.759 248.048 183.774 248.045 183.789 248.045C183.803 248.045 183.818 248.048 183.832 248.054C183.845 248.06 183.857 248.069 183.867 248.08C183.914 248.151 183.936 248.236 183.93 248.321V254.273C183.93 254.848 183.881 255.422 183.783 255.988C183.697 256.506 183.55 257.011 183.345 257.494C183.158 257.937 182.913 258.352 182.615 258.729C182.321 259.078 181.968 259.372 181.571 259.597C181.261 259.8 180.899 259.909 180.528 259.911C180.386 259.899 180.249 259.859 180.123 259.793C179.997 259.726 179.887 259.634 179.798 259.524C179.569 259.216 179.418 258.857 179.36 258.478C179.26 257.971 179.214 257.456 179.224 256.94V250.978C179.224 250.873 179.245 250.77 179.286 250.674C179.312 250.588 179.368 250.514 179.443 250.465L180.1 250.078C180.122 250.058 180.15 250.047 180.179 250.047C180.208 250.047 180.236 250.058 180.257 250.078C180.305 250.149 180.327 250.234 180.319 250.319V256.197C180.311 256.521 180.343 256.844 180.413 257.16C180.442 257.362 180.529 257.551 180.664 257.704C180.711 257.76 180.77 257.804 180.837 257.833C180.904 257.862 180.977 257.875 181.05 257.871C181.228 257.859 181.401 257.801 181.551 257.704C181.736 257.592 181.905 257.455 182.051 257.296C182.214 257.108 182.348 256.896 182.448 256.668C182.566 256.4 182.653 256.119 182.709 255.831C182.77 255.486 182.798 255.136 182.792 254.785V248.896C182.796 248.791 182.82 248.688 182.865 248.593C182.891 248.507 182.946 248.432 183.022 248.384L183.71 248.08Z" fill="#FAFAFA"/>
<path d="M187.801 253.707C187.807 253.63 187.789 253.554 187.749 253.487C187.724 253.46 187.693 253.439 187.659 253.427C187.624 253.414 187.587 253.41 187.551 253.414C187.423 253.397 187.293 253.397 187.165 253.414L186.56 253.529C186.364 253.578 186.16 253.578 185.965 253.529C185.812 253.48 185.68 253.38 185.589 253.247C185.487 253.077 185.42 252.889 185.391 252.693C185.289 252.132 185.289 251.558 185.391 250.998C185.469 250.677 185.581 250.365 185.725 250.067C185.868 249.77 186.043 249.489 186.247 249.23C186.444 248.983 186.684 248.774 186.956 248.613C187.176 248.479 187.421 248.393 187.676 248.362C187.861 248.343 188.048 248.383 188.208 248.477C188.361 248.571 188.482 248.71 188.553 248.875C188.637 249.07 188.683 249.279 188.688 249.492C188.699 249.597 188.677 249.703 188.626 249.795C188.6 249.881 188.544 249.956 188.469 250.004L187.843 250.37C187.814 250.387 187.782 250.396 187.749 250.396C187.716 250.396 187.684 250.387 187.655 250.37L187.52 250.266C187.466 250.223 187.4 250.198 187.332 250.193C187.198 250.208 187.069 250.254 186.956 250.329C186.792 250.428 186.647 250.555 186.528 250.705C186.402 250.87 186.336 251.073 186.341 251.28C186.326 251.36 186.326 251.441 186.341 251.521C186.361 251.551 186.387 251.575 186.417 251.593C186.448 251.611 186.482 251.622 186.518 251.626C186.632 251.645 186.748 251.645 186.862 251.626L187.447 251.521C187.937 251.427 188.271 251.521 188.49 251.793C188.72 252.181 188.826 252.63 188.793 253.08C188.79 253.39 188.748 253.7 188.667 254C188.585 254.326 188.466 254.642 188.313 254.941C188.159 255.251 187.966 255.539 187.739 255.799C187.523 256.053 187.265 256.269 186.977 256.437C186.748 256.584 186.486 256.674 186.215 256.699C186.019 256.706 185.826 256.651 185.662 256.542C185.501 256.431 185.378 256.275 185.308 256.092C185.223 255.894 185.181 255.68 185.182 255.464C185.173 255.356 185.194 255.247 185.245 255.151C185.271 255.064 185.326 254.99 185.401 254.941L186.028 254.575C186.111 254.575 186.174 254.523 186.215 254.575L186.351 254.722C186.379 254.753 186.412 254.778 186.45 254.796C186.488 254.814 186.528 254.824 186.57 254.826C186.717 254.827 186.86 254.779 186.977 254.69C187.165 254.583 187.335 254.445 187.478 254.282C187.549 254.196 187.608 254.101 187.655 254C187.729 253.917 187.779 253.816 187.801 253.707Z" fill="#FAFAFA"/>
<path d="M189.93 250.873C189.928 250.33 189.974 249.787 190.066 249.252C190.153 248.748 190.289 248.254 190.473 247.777C190.626 247.349 190.837 246.945 191.099 246.574C191.318 246.255 191.602 245.988 191.934 245.79C192.175 245.627 192.471 245.563 192.758 245.612C193.013 245.671 193.236 245.824 193.384 246.041C193.58 246.324 193.719 246.644 193.791 246.982C193.891 247.421 193.94 247.87 193.937 248.321V248.969C193.94 249.079 193.915 249.187 193.864 249.283C193.838 249.369 193.783 249.444 193.707 249.492L190.995 251.072C190.988 251.256 191.013 251.44 191.068 251.616C191.108 251.734 191.18 251.839 191.276 251.919C191.362 251.987 191.47 252.021 191.579 252.013C191.705 251.998 191.826 251.955 191.934 251.888C192.091 251.802 192.233 251.688 192.351 251.553C192.458 251.432 192.549 251.299 192.622 251.155C192.667 251.073 192.716 250.993 192.768 250.915C192.813 250.862 192.866 250.816 192.925 250.779L193.572 250.402C193.594 250.385 193.622 250.375 193.65 250.375C193.678 250.375 193.706 250.385 193.728 250.402C193.756 250.435 193.775 250.474 193.786 250.516C193.797 250.557 193.799 250.601 193.791 250.643C193.779 250.847 193.737 251.048 193.666 251.239C193.576 251.529 193.457 251.81 193.311 252.076C193.148 252.382 192.952 252.67 192.727 252.934C192.502 253.203 192.234 253.433 191.934 253.614C191.687 253.775 191.392 253.846 191.099 253.812C190.842 253.751 190.619 253.594 190.473 253.373C190.267 253.056 190.129 252.7 190.066 252.327C189.971 251.848 189.926 251.361 189.93 250.873ZM191.934 247.536C191.773 247.623 191.634 247.744 191.527 247.892C191.411 248.038 191.316 248.2 191.245 248.373C191.172 248.546 191.113 248.724 191.068 248.907C191.031 249.072 191.006 249.24 190.995 249.409L192.831 248.363C192.82 248.218 192.799 248.075 192.768 247.934C192.752 247.807 192.702 247.688 192.622 247.589C192.591 247.543 192.551 247.505 192.504 247.476C192.457 247.448 192.405 247.429 192.351 247.421C192.203 247.409 192.055 247.449 191.934 247.536Z" fill="#FAFAFA"/>
<path d="M197.212 244.616C196.896 244.797 196.647 245.076 196.503 245.411C196.34 245.852 196.266 246.321 196.284 246.792V250.568C196.285 250.675 196.264 250.782 196.221 250.881C196.195 250.968 196.14 251.042 196.065 251.091L195.449 251.446C195.439 251.457 195.427 251.466 195.414 251.472C195.4 251.478 195.386 251.482 195.371 251.482C195.356 251.482 195.341 251.478 195.328 251.472C195.314 251.466 195.302 251.457 195.292 251.446C195.246 251.375 195.224 251.291 195.23 251.206V244.438C195.23 244.33 195.252 244.224 195.292 244.124C195.322 244.04 195.376 243.967 195.449 243.915L196.065 243.559C196.086 243.54 196.114 243.529 196.143 243.529C196.172 243.529 196.2 243.54 196.221 243.559C196.269 243.626 196.292 243.708 196.284 243.79V244.124C196.408 243.844 196.562 243.577 196.743 243.329C196.908 243.1 197.122 242.911 197.369 242.775L197.744 242.555C197.764 242.536 197.79 242.525 197.817 242.525C197.845 242.525 197.871 242.536 197.89 242.555C197.941 242.625 197.967 242.71 197.964 242.796V243.748C197.962 243.856 197.937 243.963 197.89 244.062C197.864 244.144 197.813 244.217 197.744 244.271L197.212 244.616Z" fill="#FAFAFA"/>
<path d="M204.997 244.113C205.007 244.102 205.019 244.093 205.033 244.087C205.046 244.081 205.061 244.078 205.076 244.078C205.09 244.078 205.105 244.081 205.119 244.087C205.132 244.093 205.144 244.102 205.154 244.113C205.201 244.184 205.223 244.269 205.217 244.354V245.4C205.216 245.507 205.195 245.614 205.154 245.714C205.118 245.791 205.064 245.859 204.997 245.912L201.429 248.004C201.408 248.024 201.38 248.035 201.351 248.035C201.322 248.035 201.294 248.024 201.273 248.004C201.226 247.937 201.204 247.856 201.21 247.774V238.36C201.21 238.252 201.232 238.146 201.273 238.046C201.302 237.965 201.357 237.895 201.429 237.848L202.086 237.461C202.108 237.441 202.136 237.43 202.165 237.43C202.194 237.43 202.222 237.441 202.243 237.461C202.29 237.528 202.312 237.609 202.305 237.691V245.651L204.997 244.113Z" fill="#FAFAFA"/>
<path d="M208.198 236.375C208.433 236.212 208.716 236.135 209.001 236.156C209.246 236.175 209.473 236.287 209.638 236.469C209.832 236.693 209.975 236.958 210.055 237.244C210.167 237.614 210.23 237.997 210.243 238.384C210.243 238.467 210.243 238.582 210.243 238.718V239.524C210.243 239.649 210.243 239.764 210.243 239.859C210.222 240.313 210.159 240.765 210.055 241.208C209.959 241.639 209.819 242.06 209.638 242.463C209.472 242.838 209.258 243.19 209.001 243.509C208.781 243.798 208.509 244.043 208.198 244.231C207.956 244.388 207.672 244.465 207.384 244.45C207.143 244.43 206.919 244.317 206.758 244.137C206.558 243.921 206.414 243.658 206.341 243.373C206.229 243.003 206.166 242.619 206.153 242.233C206.153 242.149 206.153 242.045 206.153 241.909V241.103C206.153 240.967 206.153 240.852 206.153 240.769C206.165 240.31 206.224 239.855 206.33 239.409C206.432 238.974 206.575 238.55 206.758 238.143C206.924 237.77 207.134 237.419 207.384 237.097C207.605 236.805 207.882 236.56 208.198 236.375ZM209.179 239.074C209.178 238.843 209.139 238.613 209.064 238.394C209.025 238.261 208.945 238.143 208.834 238.059C208.745 238 208.638 237.974 208.532 237.986C208.413 238.009 208.299 238.055 208.198 238.122C208.075 238.189 207.963 238.274 207.864 238.373C207.744 238.498 207.642 238.639 207.561 238.792C207.457 238.982 207.379 239.186 207.332 239.398C207.263 239.665 207.221 239.939 207.207 240.214C207.207 240.298 207.207 240.392 207.207 240.507V241.25C207.207 241.365 207.207 241.459 207.207 241.522C207.216 241.753 207.259 241.982 207.332 242.202C207.37 242.335 207.451 242.453 207.561 242.536C207.605 242.567 207.654 242.589 207.706 242.599C207.758 242.61 207.812 242.61 207.864 242.599C207.982 242.579 208.096 242.536 208.198 242.474C208.319 242.404 208.431 242.319 208.532 242.222C208.648 242.095 208.75 241.955 208.834 241.804C208.935 241.612 209.012 241.408 209.064 241.197C209.132 240.931 209.171 240.657 209.179 240.382C209.185 240.284 209.185 240.186 209.179 240.089V239.356C209.185 239.262 209.185 239.168 209.179 239.074Z" fill="#FAFAFA"/>
<path d="M213.437 242.496C213.57 242.415 213.69 242.312 213.791 242.193C213.917 242.045 214.025 241.884 214.115 241.712C214.218 241.502 214.299 241.281 214.355 241.053C214.419 240.796 214.45 240.533 214.449 240.268V239.735C214.449 239.84 214.344 239.965 214.271 240.112C214.2 240.265 214.116 240.411 214.021 240.551C213.912 240.698 213.793 240.838 213.666 240.969C213.535 241.107 213.384 241.223 213.217 241.314C213.11 241.388 212.989 241.439 212.862 241.464C212.735 241.489 212.604 241.488 212.477 241.461C212.245 241.388 212.046 241.236 211.913 241.032C211.743 240.762 211.62 240.465 211.548 240.153C211.459 239.758 211.41 239.355 211.402 238.951C211.402 238.815 211.402 238.647 211.402 238.448C211.402 238.25 211.402 238.082 211.402 237.936C211.415 237.476 211.464 237.018 211.548 236.566C211.634 236.12 211.756 235.683 211.913 235.258C212.061 234.889 212.25 234.538 212.477 234.212C212.669 233.924 212.922 233.681 213.217 233.501C213.356 233.417 213.508 233.357 213.666 233.323C213.783 233.301 213.904 233.301 214.021 233.323C214.113 233.349 214.199 233.396 214.271 233.459C214.338 233.51 214.398 233.57 214.449 233.637V233.302C214.449 233.194 214.47 233.088 214.511 232.988C214.54 232.907 214.595 232.837 214.668 232.79L215.283 232.423C215.305 232.404 215.333 232.393 215.362 232.393C215.391 232.393 215.419 232.404 215.44 232.423C215.49 232.493 215.516 232.578 215.513 232.664V239.463C215.541 240.481 215.353 241.494 214.96 242.434C214.652 243.173 214.119 243.795 213.437 244.212C213.204 244.357 212.938 244.44 212.664 244.452C212.448 244.466 212.233 244.411 212.049 244.296C211.873 244.163 211.73 243.991 211.632 243.793C211.53 243.555 211.473 243.3 211.465 243.04C211.455 242.932 211.477 242.823 211.527 242.727C211.553 242.64 211.608 242.566 211.684 242.517L212.237 242.204C212.249 242.19 212.265 242.179 212.282 242.172C212.299 242.164 212.317 242.16 212.336 242.16C212.354 242.16 212.373 242.164 212.39 242.172C212.407 242.179 212.422 242.19 212.435 242.204C212.486 242.258 212.532 242.317 212.571 242.381C212.634 242.494 212.739 242.576 212.863 242.612C212.988 242.706 213.176 242.601 213.437 242.496ZM212.456 237.423C212.456 237.702 212.456 237.974 212.456 238.239C212.426 238.657 212.544 239.072 212.79 239.411C212.883 239.491 213.001 239.535 213.124 239.535C213.246 239.535 213.365 239.491 213.457 239.411C213.76 239.213 213.997 238.929 214.136 238.595C214.326 238.158 214.432 237.69 214.449 237.214C214.449 237.057 214.449 236.869 214.449 236.649C214.449 236.43 214.449 236.241 214.449 236.105C214.47 235.731 214.359 235.36 214.136 235.059C214.043 234.974 213.922 234.927 213.797 234.927C213.671 234.927 213.55 234.974 213.457 235.059C213.161 235.256 212.928 235.536 212.79 235.865C212.575 236.357 212.462 236.887 212.456 237.423Z" fill="#FAFAFA"/>
<path d="M217.947 228.132C217.968 228.115 217.994 228.105 218.02 228.105C218.047 228.105 218.073 228.115 218.094 228.132C218.148 228.199 218.175 228.286 218.167 228.372V229.512C218.167 229.621 218.142 229.729 218.094 229.826C218.064 229.905 218.014 229.974 217.947 230.025L217.246 230.433C217.236 230.444 217.224 230.453 217.211 230.459C217.197 230.465 217.183 230.468 217.168 230.468C217.153 230.468 217.138 230.465 217.125 230.459C217.111 230.453 217.099 230.444 217.089 230.433C217.062 230.402 217.041 230.365 217.029 230.326C217.016 230.286 217.012 230.244 217.016 230.203V229.063C217.015 228.954 217.041 228.846 217.089 228.749C217.119 228.667 217.174 228.598 217.246 228.55L217.947 228.132ZM218.125 237.954C218.125 238.058 218.104 238.161 218.062 238.257C218.029 238.339 217.975 238.411 217.905 238.466L217.278 238.822C217.269 238.833 217.258 238.842 217.245 238.848C217.232 238.854 217.218 238.857 217.204 238.857C217.19 238.857 217.177 238.854 217.164 238.848C217.151 238.842 217.14 238.833 217.131 238.822C217.076 238.754 217.05 238.668 217.058 238.581V231.814C217.057 231.705 217.082 231.597 217.131 231.5C217.161 231.418 217.211 231.346 217.278 231.291L217.905 230.935C217.927 230.915 217.955 230.904 217.984 230.904C218.013 230.904 218.041 230.915 218.062 230.935C218.109 231.002 218.131 231.084 218.125 231.165V237.954Z" fill="#FAFAFA"/>
<path d="M223.611 234.764C223.61 234.872 223.589 234.979 223.548 235.078C223.519 235.16 223.464 235.23 223.392 235.277L222.766 235.643C222.746 235.662 222.72 235.673 222.693 235.673C222.665 235.673 222.639 235.662 222.62 235.643C222.565 235.575 222.539 235.489 222.547 235.402V231.721C222.579 231.286 222.5 230.85 222.317 230.455C222.171 230.193 221.941 230.152 221.618 230.34C221.295 230.557 221.056 230.878 220.94 231.25C220.766 231.743 220.681 232.264 220.689 232.787V236.48C220.689 236.588 220.668 236.694 220.627 236.794C220.601 236.88 220.546 236.954 220.47 237.003L219.855 237.358C219.845 237.37 219.833 237.379 219.819 237.385C219.806 237.391 219.791 237.394 219.776 237.394C219.762 237.394 219.747 237.391 219.734 237.385C219.72 237.379 219.708 237.37 219.698 237.358C219.65 237.292 219.628 237.21 219.636 237.128V230.361C219.634 230.253 219.655 230.146 219.698 230.047C219.724 229.961 219.779 229.887 219.855 229.838L220.47 229.482C220.48 229.471 220.492 229.462 220.506 229.456C220.519 229.45 220.534 229.447 220.549 229.447C220.563 229.447 220.578 229.45 220.591 229.456C220.605 229.462 220.617 229.471 220.627 229.482C220.674 229.553 220.696 229.638 220.689 229.723V230.047C220.827 229.728 220.994 229.423 221.19 229.137C221.362 228.873 221.595 228.654 221.868 228.499C222.106 228.325 222.401 228.25 222.693 228.29C222.808 228.319 222.916 228.372 223.01 228.446C223.103 228.52 223.18 228.613 223.235 228.719C223.387 229.002 223.486 229.31 223.527 229.629C223.583 230.045 223.611 230.464 223.611 230.884V234.764Z" fill="#FAFAFA"/>
<path d="M276.238 204.313L266.107 210.17L267.683 195.924C266.462 195.275 265.69 193.696 265.69 191.426C265.69 187.378 268.152 182.681 271.178 180.966C274.204 179.251 276.656 181.071 276.656 185.15C276.593 187.55 275.91 189.893 274.673 191.949L276.238 204.313Z" fill="#455A64"/>
<path d="M276.25 204.315L267.329 199.158L266.108 210.183L276.25 204.315Z" fill="#37474F"/>
<path d="M271.157 180.939C268.951 182.433 267.305 184.624 266.483 187.163L274.652 191.89C275.889 189.834 276.572 187.492 276.635 185.091C276.656 181.043 274.204 179.192 271.157 180.939Z" fill="#37474F"/>
<path d="M221.909 133.499C218.435 131.49 213.646 131.773 208.345 134.837C197.765 140.967 189.189 155.852 189.189 168.1C189.189 174.251 191.359 178.56 194.844 180.548L201.595 184.481C205.059 186.489 209.848 186.196 215.159 183.131C225.739 177.012 234.315 162.117 234.315 149.868C234.315 143.749 232.166 139.408 228.702 137.452" fill="#8C8C8C"/>
<path d="M215.15 138.785C204.57 144.915 195.993 159.81 195.993 172.048C195.993 184.286 204.57 189.265 215.15 183.136C225.729 177.006 234.317 162.121 234.306 149.873C234.296 137.624 225.719 132.666 215.15 138.785Z" fill="#8C8C8C"/>
<path d="M225.719 165.961V167.362C223.185 171.898 219.549 175.719 215.15 178.471C211.028 180.845 207.303 181.107 204.57 179.59V176.703C204.71 173.7 205.565 170.773 207.065 168.169C208.564 165.565 210.664 163.359 213.188 161.735L215.974 160.124C218.436 158.702 220.836 158.513 222.714 159.612C224.592 160.71 225.719 163.022 225.719 165.961Z" fill="#8C8C8C"/>
<path opacity="0.4" d="M221.91 133.501L228.692 137.455C225.228 135.436 220.439 135.719 215.128 138.784C208.2 142.8 202.127 150.572 198.767 158.898L191.975 154.955C195.345 146.587 201.365 138.857 208.335 134.84C213.656 131.786 218.446 131.493 221.91 133.501Z" fill="white"/>
<path opacity="0.2" d="M201.355 184.323L194.854 180.547C191.369 178.56 189.199 174.271 189.199 168.1L195.992 172.053C196.033 178.016 198.037 182.262 201.355 184.323Z" fill="black"/>
<path opacity="0.1" d="M191.995 154.953L198.788 158.897C197.047 163.065 196.112 167.527 196.033 172.045L189.241 168.091C189.324 163.577 190.259 159.119 191.995 154.953Z" fill="black"/>
<path d="M212.728 159.461C212.081 159.468 211.443 159.302 210.881 158.98C210.204 158.527 209.661 157.899 209.31 157.163C208.959 156.426 208.814 155.609 208.888 154.796C208.977 152.89 209.519 151.033 210.471 149.381C211.422 147.729 212.754 146.329 214.356 145.298C214.999 144.783 215.783 144.475 216.603 144.414C217.424 144.352 218.245 144.541 218.957 144.954C219.67 145.368 220.241 145.987 220.596 146.732C220.952 147.476 221.075 148.311 220.95 149.127C220.86 151.032 220.316 152.888 219.365 154.54C218.414 156.192 217.083 157.593 215.483 158.624C214.654 159.142 213.704 159.431 212.728 159.461Z" fill="white"/>
<path d="M222.714 159.598C220.836 158.5 218.436 158.688 215.974 160.11L213.188 161.721C210.662 163.346 208.562 165.554 207.062 168.16C205.563 170.766 204.708 173.695 204.57 176.7V179.597C207.303 181.114 211.028 180.853 215.15 178.478C219.549 175.726 223.185 171.905 225.719 167.37V165.968C225.719 163.018 224.634 160.707 222.714 159.598Z" fill="white"/>
<path d="M437.21 340.555C437.21 340.555 438.598 328.338 444.66 318.85C450.722 309.363 459.048 303.453 466.822 302.836C474.595 302.219 480.876 309.395 472.56 314.342C464.245 319.29 449.47 324.29 442.667 342.699L437.21 340.555Z" fill="#8C8C8C"/>
<path opacity="0.1" d="M437.21 340.555C437.21 340.555 438.598 328.338 444.66 318.85C450.722 309.363 459.048 303.453 466.822 302.836C474.595 302.219 480.876 309.395 472.56 314.342C464.245 319.29 449.47 324.29 442.667 342.699L437.21 340.555Z" fill="black"/>
<path d="M439.496 337.377H439.412C439.31 337.335 439.228 337.254 439.185 337.152C439.142 337.05 439.141 336.936 439.183 336.833C447.384 316.593 462.993 308.131 470.109 306.499C470.162 306.487 470.218 306.485 470.272 306.494C470.326 306.503 470.378 306.523 470.424 306.552C470.471 306.581 470.511 306.619 470.543 306.664C470.575 306.709 470.597 306.759 470.61 306.813C470.622 306.866 470.624 306.922 470.615 306.976C470.606 307.03 470.586 307.082 470.557 307.129C470.528 307.175 470.49 307.216 470.445 307.248C470.401 307.28 470.35 307.303 470.297 307.315C463.327 308.926 448.02 317.231 439.955 337.157C439.915 337.241 439.847 337.308 439.764 337.348C439.68 337.388 439.586 337.398 439.496 337.377Z" fill="white"/>
<path d="M481 337.615C480.301 339.205 478.569 340.042 476.962 340.69C475.355 341.339 473.602 342.039 472.726 343.546C470.973 346.579 473.853 350.868 471.975 353.807C471.532 354.399 470.975 354.895 470.337 355.265C469.699 355.635 468.992 355.872 468.26 355.962C467.06 356.181 465.839 356.181 464.629 356.286C464.049 356.278 463.471 356.233 462.897 356.15C461.211 355.773 459.448 355.96 457.878 356.683C455.468 358.043 454.748 361.087 453.267 363.441C452.361 364.826 451.168 366 449.769 366.881C448.37 367.762 446.798 368.329 445.159 368.545C444.116 368.681 442.029 368.88 440.986 368.263C440.904 368.223 440.827 368.173 440.756 368.116C440.6 367.949 440.412 367.729 440.329 367.614C440.323 367.59 440.323 367.565 440.329 367.541C439.901 365.961 440.6 364.33 440.631 362.698V362.405C440.558 360.512 440.506 358.629 440.464 356.746C440.374 353.26 440.339 349.773 440.36 346.286C440.36 344.027 440.11 341.558 441.069 339.435C442.113 337.092 444.742 337.04 445.733 334.749C446.13 333.828 446.339 332.856 446.725 331.925C447.321 330.571 448.277 329.408 449.487 328.561C450.698 327.715 452.117 327.217 453.59 327.124C458.171 326.893 462.271 330.607 466.852 330.262C468.031 330.167 469.189 329.801 470.357 329.592C474.061 328.891 478.35 329.948 480.436 333.096C480.894 333.745 481.186 334.496 481.284 335.285C481.382 336.073 481.285 336.873 481 337.615Z" fill="#8C8C8C"/>
<path d="M439.871 360.293C439.772 360.264 439.688 360.197 439.638 360.108C439.587 360.018 439.573 359.912 439.599 359.812C445.922 336.026 470.901 332.616 476.775 333.013C476.827 333.016 476.878 333.029 476.924 333.052C476.971 333.074 477.012 333.106 477.046 333.145C477.08 333.184 477.106 333.23 477.122 333.279C477.139 333.328 477.145 333.38 477.14 333.432C477.13 333.534 477.081 333.627 477.003 333.694C476.925 333.76 476.825 333.793 476.723 333.787C470.995 333.38 446.538 336.737 440.351 360.021C440.321 360.12 440.255 360.204 440.165 360.254C440.076 360.305 439.97 360.319 439.871 360.293Z" fill="white"/>
<path d="M467.656 348.246C467.577 348.235 467.503 348.198 467.447 348.141C465.138 346.135 462.415 344.664 459.473 343.834C456.532 343.004 453.444 342.836 450.429 343.34C450.328 343.35 450.226 343.32 450.145 343.258C450.064 343.196 450.009 343.106 449.991 343.005C449.976 342.903 450.001 342.799 450.062 342.715C450.122 342.631 450.213 342.574 450.315 342.556C453.458 342.031 456.679 342.21 459.746 343.08C462.812 343.95 465.649 345.489 468.052 347.587C468.089 347.623 468.119 347.666 468.139 347.714C468.159 347.761 468.169 347.812 468.169 347.864C468.169 347.916 468.159 347.967 468.139 348.015C468.119 348.062 468.089 348.105 468.052 348.141C468.005 348.198 467.942 348.238 467.871 348.257C467.8 348.276 467.725 348.272 467.656 348.246Z" fill="white"/>
<path d="M379.795 53.2723L383.113 54.5484V47.2264C383.113 41.4107 387.735 40.0195 392.754 42.9274C397.783 45.8352 401.852 52.8957 401.852 58.7115V59.7575C402.551 59.5432 403.29 59.4903 404.013 59.6026C404.736 59.7149 405.424 59.9895 406.026 60.406C407.931 61.6517 409.517 63.3306 410.654 65.3062C411.79 67.2819 412.446 69.4985 412.568 71.776V72.2571L417.2 74.9349C418.454 75.7551 419.497 76.8594 420.245 78.1587C420.994 79.458 421.427 80.9156 421.509 82.4138C421.509 85.1752 419.579 86.2944 417.2 84.9137L379.795 63.2511C378.54 62.4329 377.497 61.3287 376.75 60.0289C376.003 58.729 375.573 57.2704 375.496 55.7722C375.496 53.0212 377.405 51.902 379.795 53.2723Z" fill="#E6E6E6"/>
<path d="M424.233 47.4757L430.254 50.9589C430.221 50.6951 430.203 50.4297 430.201 50.1639V48.4171C430.201 45.2791 432.372 44.0448 435.064 45.6034C436.22 46.3134 437.21 47.2662 437.964 48.3962C438.402 44.4841 441.47 43.0302 445.184 45.1745C447.307 46.5591 449.075 48.4256 450.343 50.6227C451.612 52.8198 452.347 55.2857 452.488 57.8206V60.4356C452.515 61.4805 452.304 62.5177 451.873 63.469L456.881 66.356C457.661 66.8749 458.31 67.5701 458.773 68.3858C459.237 69.2014 459.504 70.1148 459.552 71.0525C459.552 72.7784 458.342 73.4792 456.849 72.6215L424.233 53.7935C423.444 53.2783 422.788 52.5832 422.319 51.7651C421.849 50.9471 421.579 50.0292 421.531 49.0865C421.531 47.3188 422.741 46.618 424.233 47.4757Z" fill="#E6E6E6"/>
<path d="M400.922 206.228C396.539 213.655 392.324 220.109 389.361 223.205C383.737 225.82 370.528 229.858 365.363 230.527C364.456 230.643 363.537 230.427 362.775 229.92C360.741 228.581 359.165 228.362 357.026 227.619C355.346 227.044 354.637 226.238 354.324 226.573C354.001 226.953 353.838 227.445 353.871 227.943C353.904 228.441 354.131 228.907 354.501 229.24C355.304 230.005 356.193 230.672 357.152 231.228C354.861 231.798 352.471 231.84 350.161 231.353C345.685 230.171 343.577 232.326 346.603 237.2C347.646 238.937 351.945 241.73 360.584 240.977C363.666 240.81 366.736 240.461 369.777 239.931C378.061 238.152 387.274 236.437 392.94 234.701C395.047 233.87 396.933 232.559 398.449 230.872C407.975 219.983 411.137 212.222 415.31 205.172L414.955 193.666C408.194 193.436 404.584 200.015 400.922 206.228Z" fill="#FFA8A7"/>
<path d="M416.114 193.436C414.154 193.16 412.155 193.426 410.335 194.206C408.514 194.986 406.941 196.249 405.785 197.861C401.152 203.812 392.951 218.101 392.951 218.101C392.951 218.101 395.632 225.266 402.874 226.469L414.507 210.716C414.507 210.716 420.016 199.775 416.114 193.436Z" fill="#455A64"/>
<path d="M441.27 354.035H433.685V367.591H441.27V354.035Z" fill="#FFA8A7"/>
<path d="M414.978 353.312L407.403 353.584L407.017 339.233L414.978 338.961V353.312Z" fill="#FFA8A7"/>
<path d="M442.335 236.682C442.335 244.234 441.229 305.08 441.229 305.08C441.396 307.255 443.316 311.272 442.93 319.63C442.356 330.979 441.594 360.81 441.594 360.81C440.292 361.478 438.855 361.841 437.393 361.87C435.93 361.899 434.481 361.594 433.153 360.978C433.153 360.978 426.997 319.138 425.641 307.935C424.451 298.113 421.404 265.604 421.404 265.604L417.304 304.034C418.173 308.157 418.489 312.378 418.243 316.586C417.888 321.816 415.447 348.886 415.447 348.886C414.136 349.661 412.667 350.127 411.15 350.248C409.634 350.37 408.109 350.144 406.693 349.587C406.693 349.587 402.373 308.793 402.29 304.002C402.185 298.563 404.815 236.619 404.815 236.619L442.335 236.682Z" fill="#37474F"/>
<path d="M433.685 363.683V362.553C432.955 362.877 431.275 369.592 428.26 372.458C425.87 374.739 422.615 377.364 421.78 379.906C420.946 382.448 426.319 384.006 428.562 383.598C431.15 383.117 435.657 381.203 436.784 379.414C437.911 377.626 438.443 375.032 439.361 373.735C440.28 372.438 442.398 370.994 442.888 369.488C443.041 368.079 442.895 366.653 442.46 365.304C442.105 363.902 441.73 362.365 441.271 362.501V363.358C440.201 364.238 438.856 364.712 437.473 364.697C436.367 364.791 433.675 364.561 433.685 363.683Z" fill="#8C8C8C"/>
<path d="M407.319 351.137C406.922 351.137 406.599 351.733 405.733 352.716C404.445 354.074 402.939 355.206 401.277 356.064C398.439 357.549 392.93 359.829 390.416 361.011C388.851 361.743 388.924 363.71 390.541 364.829C392.158 365.948 396.05 366.754 400.724 365.666C403.27 365.07 406.588 362.612 408.696 362.748C410.804 362.883 414.716 362.842 416.271 361.702C417.826 360.561 417.2 358.197 416.761 356.158C416.281 353.919 415.718 350.436 414.977 350.593V351.378C414.069 352.821 409.364 353.407 407.36 352.35L407.319 351.137Z" fill="#8C8C8C"/>
<path d="M421.404 265.608C417.458 264.313 413.851 262.151 410.845 259.279C410.845 259.279 412.932 263.265 418.942 266.978L417.648 301.297L421.404 265.608Z" fill="#8C8C8C"/>
<path d="M438.1 194.544C438.1 194.544 444.36 195.987 443.912 207.326L442.607 225.369V252.461C437.036 258.799 412.349 258.339 403.845 251.959C403.845 251.959 404.805 219.899 405.379 207.556C405.786 198.79 407.8 194.376 416.397 193.414L426.967 193.874L438.1 194.544Z" fill="#8C8C8C"/>
<path d="M430.127 170.986C430.163 172.504 429.899 174.014 429.351 175.429C428.802 176.844 427.979 178.136 426.929 179.231C425.88 180.326 424.624 181.202 423.236 181.808C421.847 182.414 420.352 182.739 418.838 182.764C412.578 182.764 408.905 177.345 407.549 170.986C405.044 159.344 412.599 159.197 418.838 159.197C421.894 159.26 424.8 160.538 426.917 162.748C429.034 164.959 430.189 167.922 430.127 170.986Z" fill="#8C8C8C"/>
<path d="M435.887 175.746C435.887 175.746 434.155 184.24 433.456 185.641C433.016 186.485 432.268 187.126 431.369 187.43L431.494 181.457L435.887 175.746Z" fill="#8C8C8C"/>
<path d="M433.707 163.581C433.707 163.581 434.948 163.268 436.273 165.339C437.4 167.106 437.661 171.081 435.887 175.799L432.621 176.196L433.707 163.581Z" fill="#8C8C8C"/>
<path d="M434.906 165.308L438.913 165.381C438.941 165.121 438.914 164.859 438.836 164.61C438.757 164.361 438.628 164.131 438.456 163.935C438.285 163.738 438.075 163.58 437.839 163.468C437.603 163.357 437.347 163.296 437.087 163.289C436.539 163.297 436.014 163.507 435.611 163.88C435.209 164.253 434.958 164.761 434.906 165.308Z" fill="#8C8C8C"/>
<path d="M435.397 164.354L438.36 161.498C438.189 161.297 437.979 161.132 437.742 161.016C437.504 160.9 437.246 160.835 436.982 160.824C436.718 160.813 436.455 160.857 436.209 160.953C435.963 161.05 435.74 161.196 435.553 161.383C435.16 161.768 434.926 162.288 434.897 162.838C434.868 163.388 435.047 163.929 435.397 164.354Z" fill="#8C8C8C"/>
<path d="M431.64 176.143C432.297 176.551 433.226 175.244 434.04 174.354C434.853 173.465 437.378 172.649 438.693 175.536C440.008 178.423 437.765 181.279 435.886 182.22C432.516 183.894 431.452 181.457 431.452 181.457L431.17 194.908C426.433 202.23 415.686 202 419.557 194.553V190.463C417.965 190.728 416.348 190.812 414.737 190.714C412.108 190.295 410.459 188.13 409.656 185.16C408.383 180.39 407.892 176.541 408.977 167.158C410.167 156.886 421.623 156.771 427.758 160.882C433.894 164.993 431.64 176.143 431.64 176.143Z" fill="#FFA8A7"/>
<path d="M417.367 165.558C420.1 165.286 422.803 164.721 425.547 164.512C426.138 164.44 426.738 164.468 427.321 164.595C429.407 165.171 429.157 167.618 429.491 169.323C430.065 172.273 430.534 177.262 431.64 177.283C431.974 177.283 433.226 175.118 434.04 174.344C434.487 173.677 434.74 172.898 434.77 172.095C434.979 170.882 435.083 169.637 435.177 168.403C435.261 167.357 435.365 166.311 435.365 165.265C435.413 164.083 435.318 162.899 435.083 161.74C434.822 160.753 434.32 159.848 433.623 159.104L433.414 158.874C432.039 157.432 430.37 156.305 428.52 155.568C425.86 154.569 423.07 153.96 420.236 153.759C417.406 153.558 414.588 153.209 411.795 152.713C411.635 152.666 411.465 152.666 411.304 152.713C411.191 152.776 411.096 152.866 411.026 152.976C410.957 153.085 410.916 153.211 410.908 153.34C410.794 153.99 410.865 154.66 411.114 155.27C411.364 155.881 411.781 156.409 412.317 156.792C410.428 156.939 408.258 155.955 406.442 155.453C406.295 155.391 406.138 155.359 405.978 155.359C405.818 155.359 405.661 155.391 405.514 155.453C405.332 155.581 405.202 155.771 405.148 155.987C405.016 156.478 404.999 156.994 405.096 157.493C405.262 159.007 405.824 160.45 406.724 161.677C408.13 163.512 410.117 164.814 412.358 165.369C414.008 165.688 415.697 165.752 417.367 165.558Z" fill="#8C8C8C"/>
<path d="M419.567 190.463C419.567 190.463 425.431 189.229 427.476 188.089C428.694 187.421 429.683 186.4 430.314 185.16C430.006 186.406 429.457 187.579 428.697 188.612C427.205 190.62 419.567 192.085 419.567 192.085V190.463Z" fill="#F28F8F"/>
<path d="M420.977 174.605C420.966 174.927 421.082 175.242 421.301 175.479C421.52 175.716 421.823 175.857 422.145 175.87C422.401 175.891 422.657 175.834 422.88 175.707C423.103 175.58 423.282 175.388 423.394 175.157C423.507 174.926 423.547 174.666 423.509 174.412C423.471 174.157 423.358 173.92 423.184 173.732C423.01 173.543 422.783 173.411 422.533 173.354C422.283 173.297 422.021 173.317 421.783 173.411C421.544 173.506 421.339 173.67 421.196 173.883C421.052 174.096 420.976 174.347 420.977 174.605Z" fill="#8C8C8C"/>
<path d="M422.854 169.533L425.369 170.987C425.552 170.629 425.594 170.215 425.485 169.827C425.377 169.439 425.127 169.106 424.785 168.895C424.618 168.802 424.434 168.744 424.243 168.725C424.053 168.707 423.861 168.728 423.679 168.788C423.498 168.848 423.331 168.945 423.189 169.074C423.047 169.202 422.933 169.359 422.854 169.533Z" fill="#8C8C8C"/>
<path d="M420.089 183.086L417.408 184.132C417.462 184.316 417.553 184.488 417.675 184.635C417.798 184.783 417.95 184.903 418.121 184.99C418.292 185.076 418.479 185.126 418.671 185.137C418.862 185.148 419.054 185.119 419.234 185.052C419.599 184.895 419.89 184.604 420.049 184.239C420.208 183.873 420.222 183.461 420.089 183.086Z" fill="#F28F8F"/>
<path d="M410.187 170.613L412.483 168.772C412.38 168.611 412.245 168.474 412.085 168.369C411.926 168.265 411.747 168.195 411.559 168.164C411.371 168.133 411.178 168.143 410.994 168.192C410.81 168.241 410.638 168.328 410.49 168.448C410.183 168.708 409.983 169.073 409.927 169.472C409.871 169.872 409.964 170.278 410.187 170.613Z" fill="#8C8C8C"/>
<path d="M411.2 174.257C411.218 174.485 411.303 174.704 411.443 174.886C411.583 175.067 411.773 175.204 411.989 175.279C412.205 175.354 412.439 175.365 412.661 175.309C412.883 175.253 413.085 175.134 413.24 174.966C413.396 174.797 413.499 174.587 413.538 174.361C413.576 174.134 413.548 173.902 413.456 173.691C413.365 173.48 413.215 173.301 413.023 173.175C412.832 173.049 412.608 172.981 412.379 172.98C412.218 172.986 412.059 173.023 411.912 173.09C411.766 173.158 411.634 173.253 411.524 173.372C411.414 173.491 411.329 173.63 411.274 173.782C411.218 173.934 411.193 174.095 411.2 174.257Z" fill="#8C8C8C"/>
<path d="M417.492 173.277L417.357 180.714L413.141 179.752L417.492 173.277Z" fill="#F28F8F"/>
<path d="M317.389 235.564L323.931 231.777L326.518 228.629L319.987 232.415L317.389 235.564Z" fill="#8C8C8C"/>
<path opacity="0.4" d="M317.389 235.564L323.931 231.777L326.518 228.629L319.987 232.415L317.389 235.564Z" fill="black"/>
<path d="M335.179 245.86L341.721 242.073L347.178 237.23L340.646 241.007L335.179 245.86Z" fill="#8C8C8C"/>
<path opacity="0.4" d="M335.179 245.86L341.721 242.073L347.178 237.23L340.646 241.007L335.179 245.86Z" fill="black"/>
<path d="M390.751 258.923C392.298 261.001 393.234 263.472 393.453 266.056C391.913 263.974 390.978 261.505 390.751 258.923ZM405.953 259.121C403.751 244.111 395.707 229.269 386.128 223.714C381.527 221.047 377.27 220.953 373.858 222.951L367.702 226.507L367.358 226.716C367.084 226.868 366.819 227.035 366.565 227.219C366.059 227.567 365.584 227.959 365.146 228.39L364.937 228.589C364.749 228.777 364.551 228.997 364.374 229.206C364.196 229.415 363.925 229.739 363.716 230.022C363.274 230.606 362.873 231.221 362.517 231.863C362.329 232.187 362.151 232.532 361.984 232.909L308.219 201.801L301.687 205.577V209.761L302.24 210.075L302.762 210.378V211.215L301.718 211.832V214.259L309.617 230.995L317.421 235.524L320.019 232.386L326.906 236.517L330.86 243.306L335.221 245.827L340.678 240.973L347.377 244.854L349.631 254.174L360.889 260.701C361.445 263.073 362.142 265.41 362.976 267.699C363.049 267.929 363.143 268.169 363.236 268.431C366.972 278.263 372.909 286.683 379.607 290.564C380.41 291.041 381.251 291.451 382.122 291.788C382.582 291.971 383.052 292.129 383.53 292.259C383.948 292.37 384.365 292.464 384.782 292.541C386.1 292.782 387.451 292.782 388.768 292.541L389.311 292.405C389.57 292.353 389.825 292.279 390.072 292.185L390.657 291.955C390.864 291.88 391.063 291.786 391.251 291.673C391.444 291.589 391.632 291.495 391.815 291.39L392.086 291.223C392.135 291.207 392.181 291.182 392.222 291.15C393.714 290.292 397.387 288.158 398.388 287.593C403.355 284.707 406.568 277.405 406.568 267.081C406.56 264.417 406.354 261.756 405.953 259.121Z" fill="#8C8C8C"/>
<path d="M388.84 271.591C386.253 270.095 384.166 265.66 384.166 261.685C384.166 257.711 386.253 255.692 388.84 257.177C391.428 258.663 393.504 263.108 393.504 267.093C393.504 271.079 391.417 273.087 388.84 271.591ZM399.41 262.899C397.219 247.899 389.174 233.046 379.585 227.502C375.14 224.929 371.029 224.741 367.691 226.509L367.346 226.718C367.072 226.869 366.807 227.037 366.553 227.22C366.048 227.569 365.573 227.961 365.134 228.391L364.926 228.59C364.738 228.778 364.54 228.998 364.362 229.207C364.185 229.416 363.914 229.741 363.705 230.023C363.262 230.608 362.861 231.223 362.505 231.864C362.317 232.188 362.14 232.533 361.973 232.91C361 234.932 360.298 237.074 359.886 239.28L301.675 205.578V209.762L302.228 210.076L302.75 210.379V211.216L301.707 211.833V214.26L309.605 230.996L317.41 235.525L320.008 232.387L326.894 236.519L330.849 243.307L335.21 245.828L340.667 240.975L347.365 244.855L349.619 254.175L360.888 260.702C361.444 263.074 362.141 265.411 362.975 267.7C363.048 267.93 363.141 268.171 363.235 268.432C366.971 278.265 372.908 286.685 379.606 290.565C380.409 291.043 381.25 291.452 382.121 291.789C382.581 291.973 383.051 292.13 383.529 292.26C383.947 292.372 384.364 292.466 384.781 292.542C386.099 292.783 387.449 292.783 388.767 292.542L389.31 292.406C389.569 292.354 389.824 292.281 390.071 292.187L390.656 291.957C390.862 291.882 391.062 291.787 391.25 291.674C391.443 291.591 391.631 291.496 391.814 291.392L392.085 291.224C392.134 291.208 392.18 291.183 392.221 291.151C396.979 288.139 400.036 280.942 400.036 270.869C400.018 268.201 399.809 265.537 399.41 262.899Z" fill="#8C8C8C"/>
<path opacity="0.4" d="M393.505 267.083C393.505 271.068 391.418 273.087 388.841 271.591C386.264 270.095 384.167 265.671 384.167 261.685C384.167 257.7 386.254 255.681 388.841 257.177C389.586 257.632 390.235 258.229 390.751 258.934C390.975 261.517 391.911 263.987 393.453 266.068C393.491 266.405 393.509 266.744 393.505 267.083Z" fill="black"/>
<path opacity="0.4" d="M406.546 267.073C406.546 277.397 403.333 284.698 398.366 287.585C397.323 288.15 393.692 290.284 392.2 291.141C396.958 288.129 400.015 280.932 400.015 270.859C400.004 268.195 399.801 265.535 399.41 262.899C397.219 247.9 389.174 233.047 379.585 227.503C375.14 224.93 371.029 224.741 367.691 226.509L373.847 222.953C377.259 220.955 381.516 221.049 386.117 223.716C395.706 229.271 403.75 244.113 405.941 259.123C406.339 261.755 406.541 264.412 406.546 267.073Z" fill="white"/>
<path d="M400.014 270.838C400.014 280.91 396.957 288.107 392.199 291.119C393.691 290.262 397.364 288.128 398.366 287.563C403.332 284.676 406.546 277.375 406.546 267.051C406.546 266.674 406.546 266.287 406.546 265.9L400.014 269.687C400.004 270.095 400.014 270.471 400.014 270.838Z" fill="#8C8C8C"/>
<path opacity="0.1" d="M400.014 270.838C400.014 280.91 396.957 288.107 392.199 291.119C393.691 290.262 397.364 288.128 398.366 287.563C403.332 284.676 406.546 277.375 406.546 267.051C406.546 266.674 406.546 266.287 406.546 265.9L400.014 269.687C400.004 270.095 400.014 270.471 400.014 270.838Z" fill="black"/>
<path opacity="0.15" d="M360.138 243.558V245.681L301.687 211.854L302.762 211.226V210.348L360.138 243.558Z" fill="black"/>
<path opacity="0.15" d="M360.138 244.438V245.682L301.687 211.855L302.762 211.227V211.217L360.138 244.438Z" fill="black"/>
<path opacity="0.15" d="M385.555 287.574C383.339 287.516 381.179 286.87 379.294 285.702C369.768 280.189 362.016 263.788 362.016 249.144C362.016 240.598 364.593 234.218 369.09 231.613C372.22 229.793 375.924 230.023 379.816 232.272C389.332 237.784 397.084 254.238 397.084 268.882C397.084 277.417 394.507 283.808 390.01 286.402C388.653 287.179 387.117 287.583 385.555 287.574ZM373.608 231.456C372.217 231.448 370.849 231.809 369.643 232.502C365.542 234.877 363.09 241.1 363.09 249.133C363.09 263.443 370.603 279.467 379.847 284.781C383.384 286.873 386.734 287.061 389.519 285.45C393.62 283.076 396.072 276.863 396.072 268.83C396.072 254.51 388.56 238.496 379.326 233.172C377.6 232.119 375.627 231.542 373.608 231.498V231.456Z" fill="black"/>
<path opacity="0.4" d="M361.932 232.889C360.959 234.911 360.257 237.053 359.845 239.259L301.634 205.557L308.166 201.781L361.932 232.889Z" fill="white"/>
<path d="M437.588 236.163C440.635 230.379 444.12 217.388 445.852 210.829C448.314 201.52 444.328 195.662 439.8 195.422C436.972 195.861 427.655 229.825 427.655 229.825C426.612 230.651 412.453 237.858 407.904 239.668C407.09 239.976 406.192 239.976 405.379 239.668C403.198 238.873 401.706 239.019 399.567 238.81C397.887 238.643 397.042 238.046 396.823 238.402C396.624 238.843 396.598 239.344 396.751 239.803C396.904 240.263 397.224 240.648 397.647 240.881C398.568 241.419 399.549 241.847 400.569 242.157C398.74 242.713 396.834 242.971 394.924 242.921C390.542 242.826 388.966 244.73 392.368 249.197C394.454 251.979 397.908 252.858 405.619 250.19C407.831 249.416 410.836 247.92 413.642 246.906C419.423 244.814 420.946 244.563 425.349 243.067C431.766 240.891 436.232 238.737 437.588 236.163Z" fill="#FFA8A7"/>
<path d="M438.099 194.545C440.759 194.911 443.315 195.507 444.891 197.683C446.466 199.859 447.729 202.913 446.185 211.229C445.002 217.077 443.419 222.836 441.448 228.467C441.448 228.467 435.25 231.123 428.666 224.387L433.195 206.835C433.195 206.835 433.925 195.424 438.099 194.545Z" fill="#455A64"/>
</svg>
